<svg width="197" height="207" viewBox="0 0 197 207" fill="none" xmlns="http://www.w3.org/2000/svg">
<path d="M166.358 13.9243H30.6293C16.2276 13.9243 4.55273 25.5992 4.55273 40.0009V175.73C4.55273 190.131 16.2276 201.806 30.6293 201.806H166.358C180.76 201.806 192.435 190.131 192.435 175.73V40.0009C192.435 25.5992 180.76 13.9243 166.358 13.9243Z" fill="#623721" stroke="white" stroke-width="8.6922" stroke-miterlimit="10"/>
<path d="M107.925 87.1333H87.3459C82.7854 87.1333 79.0884 90.8304 79.0884 95.3909V115.97C79.0884 120.53 82.7854 124.227 87.3459 124.227H107.925C112.485 124.227 116.182 120.53 116.182 115.97V95.3909C116.182 90.8304 112.485 87.1333 107.925 87.1333Z" fill="#623721" stroke="white" stroke-width="8.6922" stroke-miterlimit="10"/>
<path d="M53.2944 87.1333H32.7156C28.155 87.1333 24.458 90.8304 24.458 95.3909V115.97C24.458 120.53 28.155 124.227 32.7156 124.227H53.2944C57.8549 124.227 61.552 120.53 61.552 115.97V95.3909C61.552 90.8304 57.8549 87.1333 53.2944 87.1333Z" fill="#623721" stroke="white" stroke-width="8.6922" stroke-miterlimit="10"/>
<path d="M162.577 87.1333H141.998C137.437 87.1333 133.74 90.8304 133.74 95.3909V115.97C133.74 120.53 137.437 124.227 141.998 124.227H162.577C167.137 124.227 170.834 120.53 170.834 115.97V95.3909C170.834 90.8304 167.137 87.1333 162.577 87.1333Z" fill="#623721" stroke="white" stroke-width="8.6922" stroke-miterlimit="10"/>
<path d="M107.925 144.698H87.3459C82.7854 144.698 79.0884 148.395 79.0884 152.956V173.535C79.0884 178.095 82.7854 181.792 87.3459 181.792H107.925C112.485 181.792 116.182 178.095 116.182 173.535V152.956C116.182 148.395 112.485 144.698 107.925 144.698Z" fill="#623721" stroke="white" stroke-width="8.6922" stroke-miterlimit="10"/>
<path d="M53.2944 144.698H32.7156C28.155 144.698 24.458 148.395 24.458 152.956V173.535C24.458 178.095 28.155 181.792 32.7156 181.792H53.2944C57.8549 181.792 61.552 178.095 61.552 173.535V152.956C61.552 148.395 57.8549 144.698 53.2944 144.698Z" fill="#623721" stroke="white" stroke-width="8.6922" stroke-miterlimit="10"/>
<path d="M162.577 144.698H141.998C137.437 144.698 133.74 148.395 133.74 152.956V173.535C133.74 178.095 137.437 181.792 141.998 181.792H162.577C167.137 181.792 170.834 178.095 170.834 173.535V152.956C170.834 148.395 167.137 144.698 162.577 144.698Z" fill="#623721" stroke="white" stroke-width="8.6922" stroke-miterlimit="10"/>
<path d="M4.55273 57.0162H192.413" stroke="white" stroke-width="8.6922" stroke-miterlimit="10"/>
<path d="M53.7725 0.690918V32.0698" stroke="white" stroke-width="8.6922" stroke-miterlimit="10"/>
<path d="M133.74 0.690918V32.0698" stroke="white" stroke-width="8.6922" stroke-miterlimit="10"/>
</svg>
