<svg width="232" height="224" viewBox="0 0 232 224" fill="none" xmlns="http://www.w3.org/2000/svg">
<path d="M116.813 113.711V220.386" stroke="white" stroke-width="8.6922" stroke-miterlimit="10"/>
<path d="M200.563 107.736V168.494C200.563 171.602 198.889 174.448 196.173 175.969L121.203 217.909C118.465 219.43 115.14 219.43 112.424 217.909L37.4753 175.991C34.7372 174.47 33.064 171.58 33.064 168.451V107.714" fill="#623721"/>
<path d="M200.563 107.736V168.494C200.563 171.602 198.889 174.448 196.173 175.969L121.203 217.909C118.465 219.43 115.14 219.43 112.424 217.909L37.4753 175.991C34.7372 174.47 33.064 171.58 33.064 168.451V107.714" stroke="white" stroke-width="8.6922" stroke-miterlimit="10"/>
<path d="M116.813 21.5081L144.498 5.4927C145.824 4.73214 147.475 4.68868 148.822 5.42751L224.488 45.7376C227.378 47.2805 227.465 51.3658 224.64 53.0391L86.9992 134.42C84.1525 136.115 80.6104 136.093 77.7637 134.376L7.66107 92.0453C4.51015 90.1547 4.57531 85.5696 7.7697 83.7442L116.792 21.5081" fill="#623721"/>
<path d="M116.813 21.5081L144.498 5.4927C145.824 4.73214 147.475 4.68868 148.822 5.42751L224.488 45.7376C227.378 47.2805 227.465 51.3658 224.64 53.039L86.9992 134.42C84.1525 136.115 80.6104 136.093 77.7637 134.376L7.66107 92.0453C4.51015 90.1547 4.57531 85.5696 7.7697 83.7442L116.792 21.5081" stroke="white" stroke-width="8.6922" stroke-miterlimit="10"/>
<path d="M115.292 21.5081L87.6076 5.4927C86.2821 4.73214 84.6305 4.68868 83.2832 5.42751L7.61763 45.7376C4.72748 47.2805 4.64054 51.3658 7.4655 53.0391L145.107 134.42C147.953 136.115 151.495 136.093 154.342 134.376L224.445 92.0453C227.596 90.1547 227.53 85.5696 224.336 83.7442L115.314 21.5081" fill="#623721"/>
<path d="M115.292 21.5081L87.6076 5.4927C86.2821 4.73214 84.6305 4.68868 83.2832 5.42751L7.61763 45.7376C4.72748 47.2805 4.64054 51.3658 7.4655 53.039L145.107 134.42C147.953 136.115 151.495 136.093 154.342 134.376L224.445 92.0453C227.596 90.1547 227.53 85.5696 224.336 83.7442L115.314 21.5081" stroke="white" stroke-width="8.6922" stroke-miterlimit="10"/>
<path d="M112.293 119.471L203.627 65.4709" stroke="white" stroke-width="8.6922" stroke-miterlimit="10"/>
<path d="M30.6953 70.6635L116.813 21.509" stroke="white" stroke-width="8.6922" stroke-miterlimit="10"/>
</svg>
