<svg width="192" height="213" viewBox="0 0 192 213" fill="none" xmlns="http://www.w3.org/2000/svg">
<path d="M165.001 15.9969H26.882C13.8724 15.9969 3.32617 26.5433 3.32617 39.5528V100.398C3.32617 113.408 13.8724 123.954 26.882 123.954H165.001C178.011 123.954 188.557 113.408 188.557 100.398V39.5528C188.557 26.5433 178.011 15.9969 165.001 15.9969Z" stroke="#623721" stroke-width="6.51915" stroke-miterlimit="10"/>
<path d="M105.373 123.958V204.556C105.373 207.186 103.243 209.337 100.592 209.337H91.2695C88.6401 209.337 86.4888 207.186 86.4888 204.556V123.958" stroke="#623721" stroke-width="6.51915" stroke-miterlimit="10"/>
<path d="M86.4888 15.9985V8.21897C86.4888 5.58958 88.6401 3.43823 91.2695 3.43823H100.592C103.243 3.43823 105.373 5.58958 105.373 8.21897V15.9985" stroke="#623721" stroke-width="6.51915" stroke-miterlimit="10"/>
</svg>
