<svg width="191" height="211" viewBox="0 0 191 211" fill="none" xmlns="http://www.w3.org/2000/svg">
<path d="M164.48 15.291H26.3606C13.3511 15.291 2.80469 25.8373 2.80469 38.8469V99.6923C2.80469 112.702 13.3511 123.248 26.3606 123.248H164.48C177.489 123.248 188.035 112.702 188.035 99.6923V38.8469C188.035 25.8373 177.489 15.291 164.48 15.291Z" fill="#623721" stroke="white" stroke-width="4.3461" stroke-miterlimit="10"/>
<path d="M104.829 123.252V203.85C104.829 206.48 102.7 208.631 100.048 208.631H90.726C88.0967 208.631 85.9453 206.48 85.9453 203.85V123.252" fill="#623721"/>
<path d="M104.829 123.252V203.85C104.829 206.48 102.7 208.631 100.048 208.631H90.726C88.0967 208.631 85.9453 206.48 85.9453 203.85V123.252" stroke="white" stroke-width="4.3461" stroke-miterlimit="10"/>
<path d="M85.9453 15.2927V7.51313C85.9453 4.88373 88.0967 2.73242 90.726 2.73242H100.048C102.7 2.73242 104.829 4.88373 104.829 7.51313V15.2927" fill="#623721"/>
<path d="M85.9453 15.2927V7.51313C85.9453 4.88374 88.0967 2.73242 90.726 2.73242H100.048C102.7 2.73242 104.829 4.88374 104.829 7.51313V15.2927" stroke="white" stroke-width="4.3461" stroke-miterlimit="10"/>
</svg>
