<svg width="230" height="223" viewBox="0 0 230 223" fill="none" xmlns="http://www.w3.org/2000/svg">
<path d="M218.052 118.254C216.032 118.254 214.206 119.08 212.881 120.384C211.577 121.709 210.751 123.556 210.751 125.556V203.242C210.751 211.369 204.167 217.932 196.061 217.932H145.951V183.25C145.951 170.364 135.411 159.825 122.525 159.825H110.074C97.1874 159.825 86.6481 170.364 86.6481 183.25V217.932H34.0603C25.9331 217.932 19.3705 211.348 19.3705 203.242V125.556C19.3705 121.514 16.1109 118.254 12.069 118.254C7.67947 118.254 4.76758 114.669 4.76758 110.909C4.76758 109.106 5.44122 107.28 6.91889 105.803L19.3705 93.3511L86.17 26.5515L102.12 10.6013C109.291 3.43026 120.874 3.43026 128.045 10.6013L143.995 26.5515L210.773 93.3511L223.224 105.803C227.809 110.388 224.572 118.254 218.074 118.254H218.052Z" fill="#623721" stroke="#623721" stroke-width="8.6922" stroke-miterlimit="10"/>
</svg>
