<svg width="157" height="29" viewBox="0 0 157 29" fill="none" xmlns="http://www.w3.org/2000/svg">
<path d="M26.3194 8.51491L26.3298 8.26917C26.4599 7.10603 27.5802 6.28898 28.8422 6.16085C29.4938 6.0947 30.0984 6.22982 30.5218 6.54371C30.9259 6.84321 31.223 7.34714 31.2059 8.16428L31.2058 8.16428V8.17472V16.2005C31.1919 16.2693 31.1865 16.3338 31.1832 16.3735C31.1759 16.4633 31.1713 16.5739 31.1687 16.699C31.1634 16.9505 31.1655 17.2854 31.1736 17.6808C31.1898 18.473 31.2304 19.527 31.2877 20.6824C31.4016 22.9812 31.5822 25.6983 31.7701 27.5781C31.7647 27.8683 31.6555 28.0399 31.4886 28.165C31.2921 28.3124 30.9814 28.4172 30.5676 28.4631C29.7427 28.5547 28.7232 28.3902 28.0537 28.1965C27.7769 28.1163 27.501 27.8534 27.2596 27.3109C27.0221 26.7771 26.8586 26.0593 26.7572 25.2416C26.5551 23.6112 26.6134 21.7071 26.7196 20.3875L26.7197 20.3875L26.7203 20.3786C26.8004 19.1001 26.8862 16.0627 26.5517 14.3259L26.5515 14.3252C26.2404 12.7229 26.2649 9.79838 26.3194 8.51491ZM26.0273 3.95936C25.7519 3.79311 25.6864 3.66859 25.6715 3.62527C25.8247 2.43753 26.8725 1.30199 28.2416 0.781828C29.5738 0.275688 31.076 0.403139 32.1515 1.54572C32.2691 1.95059 32.1449 2.38785 31.8601 2.82413C31.5587 3.28572 31.1308 3.65748 30.8708 3.82705C29.8257 4.47305 28.4679 4.59302 27.3527 4.40448C26.7968 4.31051 26.3352 4.14517 26.0273 3.95936ZM6.74947 26.5123L6.75125 26.4887L6.75078 26.465L6.51028 14.2293C6.57103 12.9257 6.43457 11.9207 6.11427 11.1653C5.78514 10.3891 5.26682 9.89088 4.62045 9.62056C3.99326 9.35826 3.28662 9.32752 2.59283 9.39509C1.95944 9.45676 1.29971 9.60458 0.666795 9.76707C0.681058 9.74586 0.696384 9.72371 0.712845 9.70063C0.841801 9.5198 1.01904 9.31052 1.23622 9.08617C2.12412 8.16898 3.5215 7.15815 4.60971 6.8587L4.61009 6.85859C6.19355 6.42152 7.31785 6.81679 8.10069 7.4541C8.90814 8.11144 9.38133 9.05342 9.56242 9.71185L9.79585 10.5606L10.4053 9.92543C15.4338 4.68461 19.8451 6.57485 20.7428 8.14505L20.743 8.14543C21.6418 9.71448 21.2729 10.9722 20.628 11.7638C20.2952 12.1724 19.8907 12.4529 19.5442 12.5869C19.1549 12.7375 19.0115 12.6509 19.01 12.6496L18.9823 12.6247L18.9512 12.6041C18.5682 12.3508 18.2221 12.0436 17.8783 11.7385C17.8203 11.687 17.7623 11.6355 17.7042 11.5844C17.5099 11.4134 17.3105 11.2429 17.1145 11.1038C16.9219 10.9671 16.7004 10.837 16.4592 10.7749L16.4335 10.7682L16.4073 10.7644C14.6258 10.5021 13.329 11.0117 12.4562 12.0977C11.6196 13.1387 11.2261 14.6459 11.0468 16.2789C10.8661 17.9253 10.8956 19.7816 10.9676 21.5826C10.99 22.1418 11.0163 22.6941 11.0421 23.2342C11.1001 24.4498 11.1552 25.6036 11.1552 26.6343C11.1552 27.2932 10.8807 27.7465 10.4793 28.0438C10.0622 28.3528 9.48168 28.5096 8.88087 28.4877C8.27999 28.4659 7.71163 28.2673 7.31782 27.9321C6.93873 27.6094 6.70175 27.1468 6.74947 26.5123ZM54.8117 7.0067L54.8538 7.00389C55.1302 7.00404 55.4779 7.07483 55.808 7.22921C56.1596 7.39369 56.4567 7.63642 56.6336 7.94455C56.9528 8.50063 57.0131 9.55523 55.4547 11.296L55.4133 11.3421L55.3845 11.397C55.3144 11.5304 55.1512 11.7584 54.8817 12.0813C54.6194 12.3956 54.2779 12.7747 53.8738 13.2036C53.0662 14.0611 52.0227 15.1028 50.8937 16.198C48.6405 18.3838 46.0607 20.7693 44.3686 22.3014C44.0263 22.5815 43.7843 22.7967 43.6227 22.9639C43.5415 23.0478 43.4695 23.1309 43.4139 23.213C43.3652 23.2848 43.292 23.4083 43.2784 23.5653C43.2604 23.7732 43.3524 23.961 43.5093 24.0759C43.6265 24.1618 43.7516 24.186 43.8057 24.1951C43.8706 24.2061 43.9361 24.21 43.9757 24.2124L43.9964 24.2136C44.0325 24.2157 44.0541 24.217 44.0745 24.2192C46.3359 24.4765 49.6789 24.3136 51.8666 24.2071C52.4579 24.1782 52.9647 24.1536 53.3431 24.1424L53.3779 24.1413L53.4123 24.1355C53.8925 24.0537 54.4868 24.1233 55.1632 24.32C55.8341 24.5152 56.55 24.825 57.2582 25.1864C58.4773 25.8086 59.6303 26.5608 60.4501 27.0957C60.5846 27.1834 60.7102 27.2653 60.8256 27.3399L60.8258 27.34C61.1981 27.5801 61.3458 27.7593 61.4044 27.8598L56.8234 27.6295L56.7986 27.6283L56.7739 27.6295L40.4235 28.4281C38.6369 28.3105 37.6722 27.888 37.1517 27.3949C36.6439 26.9137 36.4811 26.2899 36.4811 25.5642C36.4811 25.2852 36.589 24.9477 36.8091 24.5609C37.0267 24.1786 37.3338 23.7833 37.6832 23.3981C38.3823 22.6271 39.2035 21.947 39.6892 21.5457L39.6895 21.5455C40.483 20.889 46.2382 15.37 48.996 12.7123L49.0054 12.7033L49.0143 12.6938C49.2665 12.424 49.4903 12.208 49.674 12.0336C49.7001 12.0088 49.7261 11.9842 49.752 11.9598C49.8952 11.8244 50.0303 11.6967 50.1168 11.5963C50.1586 11.5477 50.2531 11.4361 50.2936 11.2886C50.318 11.2 50.3321 11.0654 50.2707 10.9214C50.2092 10.777 50.1018 10.6935 50.0194 10.6492C49.8819 10.5755 49.7324 10.5673 49.6608 10.5644C49.567 10.5607 49.458 10.5649 49.3423 10.5723L49.3422 10.5723C44.3637 10.8903 40.1416 10.2277 38.5115 9.86304L38.4914 9.85855L38.471 9.85572C37.778 9.75967 37.3924 9.47857 37.1868 9.17176C36.9746 8.85521 36.9095 8.44458 36.987 8.02056C37.0648 7.5948 37.2803 7.19581 37.5711 6.92828C37.8558 6.66647 38.1962 6.54156 38.5644 6.60028L38.6431 6.10652L38.5644 6.60028C43.8506 7.44299 51.6034 7.22072 54.8117 7.0067ZM49.6485 11.5659C49.6482 11.566 49.6454 11.5657 49.6404 11.5648C49.6462 11.5654 49.6487 11.5658 49.6485 11.5659ZM49.3744 10.9244C49.3747 10.9242 49.3732 10.9264 49.3694 10.9313C49.3722 10.9269 49.3741 10.9245 49.3744 10.9244ZM95.8613 26.5571V26.5071L95.8514 26.4581L95.5377 24.9045V15.6656V15.6292L95.5324 15.5933C95.3732 14.5036 95.197 12.7169 95.109 11.1234C95.0649 10.3266 95.0435 9.58761 95.0561 9.01323C95.0625 8.7252 95.0772 8.48833 95.0998 8.31062C95.1177 8.1704 95.1366 8.10238 95.1429 8.07999C95.1457 8.06985 95.1459 8.06906 95.1423 8.07516L95.214 7.95613V7.81717C95.214 7.59789 95.3664 7.26595 95.7457 6.91715C96.1109 6.58128 96.6225 6.29278 97.1792 6.14795C97.7342 6.00354 98.3053 6.00868 98.8111 6.21742C99.308 6.42247 99.7907 6.84361 100.148 7.62399L100.19 7.71581L100.264 7.78412C101.937 9.32048 104.849 11.1155 108.452 11.6737C112.075 12.2349 116.369 11.5405 120.755 8.13223L120.829 8.07493L120.877 7.99487C121.461 7.02333 122.107 6.48783 122.712 6.23751C123.315 5.98846 123.915 6.00527 124.45 6.20433C125.545 6.61215 126.344 7.77448 126.243 8.97638L126.242 8.99119L126.241 9.00606C126.214 10.0983 126.162 11.7637 126.092 13.2106C126.057 13.9347 126.018 14.5998 125.976 15.1097C125.955 15.3652 125.934 15.5763 125.913 15.734C125.897 15.8526 125.884 15.915 125.879 15.9394C125.876 15.9528 125.875 15.9548 125.878 15.9486L125.841 16.0344L125.838 16.1278C125.783 17.5751 125.692 21.3815 125.757 25.0457C125.787 26.726 125.173 27.5672 124.485 27.994C123.757 28.4452 122.846 28.4943 122.227 28.3873L122.172 28.3777L122.115 28.3808C121.728 28.4018 121.283 28.2724 120.985 28.0432C120.715 27.8361 120.602 27.5893 120.678 27.2857C120.748 27.1165 120.802 26.8577 120.837 26.5347C120.878 26.1516 120.899 25.6241 120.865 24.9305L120.865 24.9302C120.801 23.6089 120.576 16.7638 120.467 13.3937C120.459 12.9041 119.927 12.7012 119.581 12.9142L119.581 12.9141L119.573 12.9189C116.615 14.8104 108.952 17.3057 100.94 12.4344L100.196 11.9821L100.18 12.8526C100.14 15.0903 100.16 18.3405 100.221 21.1206C100.251 22.5108 100.292 23.7871 100.34 24.7628C100.364 25.2502 100.39 25.6666 100.419 25.9864C100.433 26.146 100.448 26.286 100.464 26.4009C100.479 26.5057 100.499 26.6217 100.53 26.7146L100.54 26.7436C100.691 27.3988 100.497 27.7957 100.185 28.0512C99.8229 28.3473 99.2247 28.513 98.5348 28.4903C97.8523 28.4678 97.1596 28.2623 96.652 27.9133C96.1526 27.57 95.8613 27.1138 95.8613 26.5571ZM145.282 16.517L145.471 16.4231L145.535 16.2224C146.219 14.0942 145.249 11.9109 143.407 10.7059C141.548 9.48994 138.824 9.26653 135.938 10.9094L135.927 10.9156L135.916 10.9223C135.231 11.359 134.205 11.8531 133.332 11.9737C132.896 12.0338 132.56 11.9926 132.327 11.8683C132.118 11.7569 131.925 11.5436 131.836 11.0885L131.836 11.0881C131.652 10.1537 132.047 9.35189 132.701 8.68846C133.358 8.02212 134.227 7.55335 134.822 7.33069C137.142 6.52544 140.676 5.99237 143.736 6.90897C145.257 7.36459 146.651 8.1749 147.733 9.48073C148.81 10.7798 149.604 12.6007 149.882 15.1247L149.48 23.2526L149.478 23.2918L149.482 23.3307C149.555 24.0103 149.982 24.7602 151.048 25.1224C152.061 25.4667 153.618 25.4513 155.981 24.8066C156.142 24.7763 156.286 24.7602 156.402 24.7577C156.338 24.8545 156.241 24.9781 156.1 25.1315C155.75 25.5125 155.17 26.0323 154.27 26.7273C151.844 28.5997 149.874 28.6737 148.453 28.2274C146.994 27.769 146.027 26.734 145.708 26.276L145.439 25.8919L145.039 26.1346C141.101 28.5193 137.234 28.9569 134.413 28.0865C131.612 27.2226 129.834 25.083 129.903 22.1829C130.166 18.5973 133.087 16.6807 136.492 15.9091C138.183 15.526 139.946 15.4409 141.454 15.5731C142.983 15.7072 144.17 16.0579 144.765 16.4799L145.009 16.653L145.277 16.5196L145.282 16.517ZM145.472 20.1512L145.472 20.1512C145.44 19.9643 145.341 19.8184 145.248 19.7156C145.152 19.6094 145.034 19.5178 144.912 19.4387C144.669 19.2803 144.351 19.1351 143.993 19.0061C143.274 18.7465 142.32 18.5261 141.296 18.4072C140.27 18.2883 139.153 18.2685 138.11 18.4228C137.072 18.5764 136.067 18.9084 135.305 19.5272C134.576 20.1199 134.137 20.7822 133.985 21.4711C133.832 22.1649 133.984 22.8303 134.335 23.3935C135.024 24.5003 136.475 25.2204 138.042 25.2204C139.065 25.2204 140.008 25.18 141.094 24.87C142.177 24.5611 143.373 23.9931 144.931 22.9757L145.073 22.8831L145.13 22.7233C145.218 22.4719 145.338 22.0573 145.419 21.6012C145.5 21.1531 145.551 20.6197 145.472 20.1512ZM91.3111 16.9775C91.3111 20.0982 89.5959 22.9649 86.741 25.0694C83.8862 27.1738 79.9188 28.4906 75.5153 28.4906C71.1117 28.4906 67.1443 27.1738 64.2896 25.0694C61.4347 22.9649 59.7195 20.0982 59.7195 16.9775C59.7195 13.8568 61.4347 10.9901 64.2896 8.88556C67.1443 6.78115 71.1117 5.46437 75.5153 5.46437C79.9188 5.46437 83.8862 6.78115 86.741 8.88556C89.5959 10.9901 91.3111 13.8568 91.3111 16.9775ZM75.4324 25.3259C81.16 25.3259 86.016 21.6574 86.016 16.8977C86.016 12.138 81.1573 8.4696 75.4324 8.4696C69.7076 8.4696 64.8488 12.138 64.8488 16.8977C64.8488 21.6575 69.7076 25.3259 75.4324 25.3259Z" fill="#623721" stroke="#623721"/>
</svg>
